# xmcd CD database file
#
# Track frame offsets:
#	182
#	14020
#	28397
#	42052
#	53872
#	67367
#	78942
#	94042
#	107280
#	122210
#
# Disc length: 1833 seconds
#
# Revision: 3
# Processed by: cddbd v1.5.2PL0 Copyright (c) Steve Scherf et al.
# Submitted via: CDex 1.79
#
DISCID=8407270a
DTITLE=Larry Boone - Down That River Road
DYEAR=1990
DGENRE=Country
TTITLE0=Everybody Wants To Be Hank Williams
TTITLE1=Hard Time Taking The Easy Way Out
TTITLE2=I Know Who Drove Her There
TTITLE3=Too Blue To Be True
TTITLE4=Best Performance By A Fool
TTITLE5=A Quarter At A Time
TTITLE6=Gettin' Nowhere (Gettin' Over You)
TTITLE7=Down That River Road
TTITLE8=The Moon Over Georgia
TTITLE9=Crow Hill Road
EXTD=1990 PolyGram Records, Inc. mercury 842 156-2\n0 422-842156-2 6 YEAR: 1990
EXTT0=
EXTT1=
EXTT2=
EXTT3=
EXTT4=
EXTT5=
EXTT6=
EXTT7=
EXTT8=
EXTT9=
PLAYORDER=
